<svg data-v-fde0c5aa="" xmlns="http://www.w3.org/2000/svg" viewBox="0 0 300 300" class="iconLeft"><!----><defs data-v-fde0c5aa=""><!----></defs><rect data-v-fde0c5aa="" fill="#0B173D" x="0" y="0" width="300px" height="300px" class="logo-background-square"></rect><defs data-v-fde0c5aa=""><!----></defs><g data-v-fde0c5aa="" id="d6f4c7c1-940d-42cd-b4f3-a5c2220346b1" fill="#D1A103" transform="matrix(2.7759142569374133,0,0,2.7759142569374133,94.72205747134211,125.62747224167953)"><path d="M8.22 3.92L8.02 3.92L0.73 3.92L0.52 3.92L0.42 3.92L0.42 5.96L0.77 5.96C0.97 5.96 1.05 5.85 1.06 5.63C1.06 5.53 1.09 5.17 1.12 4.52L4.02 4.52L4.02 13.26C3.85 13.26 3.71 13.27 3.57 13.27C3.43 13.27 3.32 13.29 3.25 13.29L3.12 13.29C2.94 13.30 2.84 13.38 2.84 13.54L2.84 13.82L4.02 13.82L4.73 13.82L5.92 13.82L5.92 13.54C5.92 13.38 5.82 13.30 5.64 13.29L5.50 13.29C5.43 13.29 5.33 13.27 5.19 13.27C5.05 13.27 4.90 13.26 4.73 13.26L4.73 4.52L7.62 4.52C7.66 5.24 7.67 5.60 7.67 5.63C7.69 5.85 7.78 5.96 7.98 5.96L8.32 5.96L8.32 3.92ZM14.55 13.29L14.45 13.29L14.22 13.29C14.13 13.29 14.01 13.27 13.90 13.27L13.90 9.28C13.90 8.89 13.86 8.55 13.76 8.23C13.66 7.91 13.52 7.64 13.34 7.42C13.16 7.20 12.92 7.03 12.64 6.92C12.36 6.79 12.04 6.73 11.66 6.73C11.16 6.73 10.71 6.83 10.30 7.01C9.90 7.20 9.52 7.48 9.16 7.84L9.27 8.05C9.31 8.13 9.38 8.18 9.48 8.18C9.55 8.18 9.65 8.12 9.74 8.02C9.84 7.92 9.98 7.84 10.15 7.73C10.32 7.62 10.50 7.52 10.74 7.42C10.98 7.32 11.26 7.28 11.59 7.28C12.14 7.28 12.56 7.45 12.84 7.80C13.12 8.15 13.24 8.64 13.24 9.28L13.24 10.01C12.46 10.02 11.79 10.09 11.23 10.21C10.67 10.32 10.21 10.47 9.84 10.65C9.48 10.84 9.23 11.06 9.06 11.31C8.89 11.56 8.81 11.83 8.81 12.12C8.81 12.45 8.86 12.73 8.96 12.95C9.07 13.17 9.21 13.36 9.38 13.50C9.55 13.64 9.76 13.75 9.98 13.82C10.21 13.89 10.43 13.93 10.67 13.93C10.95 13.93 11.21 13.90 11.45 13.85C11.69 13.79 11.90 13.71 12.11 13.61C12.32 13.51 12.52 13.38 12.71 13.23C12.89 13.08 13.08 12.91 13.27 12.73L13.37 13.62C13.40 13.75 13.50 13.82 13.64 13.82L13.65 13.82L13.90 13.82L14.83 13.82L14.83 13.54C14.83 13.38 14.73 13.30 14.55 13.29ZM13.24 12.26C13.08 12.43 12.92 12.60 12.75 12.74C12.59 12.88 12.40 13.01 12.21 13.12C12.01 13.23 11.80 13.30 11.58 13.36C11.35 13.41 11.10 13.44 10.84 13.44C10.65 13.44 10.47 13.43 10.30 13.37C10.14 13.31 10.00 13.24 9.87 13.13C9.74 13.02 9.63 12.88 9.56 12.71C9.48 12.54 9.45 12.35 9.45 12.11C9.45 11.86 9.52 11.63 9.67 11.44C9.83 11.24 10.05 11.09 10.36 10.95C10.67 10.81 11.06 10.70 11.54 10.61C12.01 10.53 12.59 10.47 13.24 10.46ZM18.52 13.29L18.45 13.29L18.34 13.29C18.30 13.29 18.23 13.27 18.13 13.27C18.03 13.27 17.92 13.26 17.79 13.26L17.79 3.63L17.12 3.63L16.11 3.63L16.11 3.91C16.11 4.06 16.21 4.14 16.39 4.16L16.46 4.16C16.49 4.16 16.53 4.17 16.58 4.17L16.79 4.17C16.88 4.17 17.00 4.19 17.12 4.19L17.12 13.26C16.97 13.26 16.83 13.29 16.72 13.29L16.48 13.29L16.39 13.29C16.21 13.30 16.11 13.38 16.11 13.54L16.11 13.82L17.12 13.82L17.79 13.82L18.80 13.82L18.80 13.54C18.80 13.38 18.70 13.30 18.52 13.29ZM26.40 13.29L26.33 13.29L26.26 13.29L26.11 13.29C26.04 13.29 25.96 13.27 25.87 13.27L23.14 10.30C23.09 10.25 23.04 10.19 22.99 10.14C22.93 10.08 22.86 10.05 22.79 10.01C22.85 9.98 22.89 9.94 22.93 9.90C22.97 9.86 23.03 9.81 23.07 9.77L25.56 7.41C25.65 7.41 25.72 7.39 25.79 7.39C25.86 7.39 25.91 7.38 25.97 7.38L26.07 7.38C26.25 7.36 26.33 7.28 26.33 7.13L26.33 6.85L25.61 6.85L25.33 6.85L24.18 6.85L24.18 7.13C24.18 7.28 24.28 7.36 24.46 7.38C24.47 7.38 24.58 7.38 24.81 7.39L22.40 9.69C22.33 9.76 22.26 9.80 22.20 9.81C22.15 9.83 22.09 9.84 22.02 9.84L21.70 9.84L21.70 3.64L21.03 3.64L20.02 3.64L20.02 3.91C20.02 4.06 20.12 4.14 20.30 4.16L20.37 4.16C20.40 4.16 20.44 4.17 20.48 4.17L20.69 4.17C20.79 4.17 20.90 4.19 21.03 4.19L21.03 13.26C20.87 13.26 20.73 13.29 20.62 13.29L20.38 13.29L20.30 13.29C20.12 13.30 20.02 13.38 20.02 13.54L20.02 13.82L21.03 13.82L21.70 13.82L22.71 13.82L22.71 13.54C22.71 13.38 22.61 13.30 22.43 13.29L22.36 13.29L22.25 13.29C22.20 13.29 22.13 13.27 22.04 13.27C21.94 13.27 21.83 13.26 21.70 13.26L21.70 10.30L22.01 10.30C22.15 10.30 22.25 10.32 22.32 10.35C22.39 10.37 22.46 10.44 22.54 10.53L25.47 13.65C25.52 13.71 25.56 13.75 25.62 13.78C25.68 13.80 25.72 13.82 25.79 13.82L25.83 13.82L26.38 13.82L26.68 13.82L26.68 13.54C26.68 13.38 26.59 13.30 26.40 13.29ZM30.14 13.93C30.44 13.93 30.72 13.86 31.00 13.75C31.26 13.64 31.49 13.48 31.67 13.29L31.49 12.98C31.44 12.94 31.42 12.92 31.37 12.92C31.35 12.92 31.29 12.94 31.23 12.99C31.18 13.05 31.11 13.09 31.02 13.15C30.94 13.20 30.83 13.26 30.70 13.31C30.58 13.37 30.45 13.38 30.28 13.38C30.14 13.38 30.00 13.36 29.89 13.31C29.78 13.27 29.68 13.20 29.60 13.12C29.51 13.03 29.44 12.92 29.39 12.78C29.33 12.64 29.32 12.49 29.32 12.29L29.32 7.57L31.51 7.57L31.51 7.07L29.32 7.07L29.32 4.41L28.99 4.41C28.94 4.41 28.91 4.44 28.88 4.47C28.85 4.49 28.83 4.54 28.83 4.58L28.66 7.07L27.47 7.15L27.47 7.41C27.47 7.46 27.48 7.49 27.51 7.52C27.54 7.55 27.59 7.57 27.65 7.57L28.64 7.57L28.64 12.33C28.64 12.88 28.77 13.27 29.04 13.54C29.30 13.80 29.67 13.93 30.14 13.93ZM35.92 6.73C35.42 6.73 34.97 6.83 34.58 7.00C34.19 7.17 33.85 7.41 33.57 7.71C33.29 8.02 33.10 8.40 32.96 8.85C32.82 9.30 32.73 9.79 32.73 10.33C32.73 10.88 32.82 11.37 32.96 11.80C33.10 12.24 33.29 12.63 33.57 12.94C33.85 13.24 34.19 13.48 34.58 13.65C34.97 13.82 35.42 13.90 35.92 13.90C36.43 13.90 36.86 13.82 37.25 13.65C37.65 13.48 37.98 13.24 38.25 12.94C38.51 12.63 38.74 12.24 38.88 11.80C39.02 11.37 39.09 10.88 39.09 10.33C39.09 9.79 39.02 9.30 38.88 8.85C38.74 8.40 38.51 8.02 38.25 7.71C37.98 7.41 37.65 7.17 37.25 7.00C36.86 6.83 36.43 6.73 35.92 6.73ZM35.92 13.38C35.50 13.38 35.14 13.31 34.83 13.17C34.52 13.03 34.26 12.82 34.05 12.56C33.84 12.29 33.70 11.97 33.59 11.59C33.47 11.21 33.43 10.79 33.43 10.33C33.43 9.87 33.47 9.45 33.59 9.07C33.70 8.69 33.84 8.37 34.05 8.11C34.26 7.84 34.52 7.62 34.83 7.48C35.14 7.34 35.50 7.27 35.92 7.27C36.34 7.27 36.69 7.34 37.00 7.48C37.31 7.62 37.58 7.84 37.79 8.11C38.00 8.37 38.15 8.69 38.25 9.07C38.35 9.45 38.40 9.87 38.40 10.33C38.40 10.79 38.35 11.21 38.25 11.59C38.15 11.97 38.00 12.29 37.79 12.56C37.58 12.82 37.31 13.03 37.00 13.17C36.69 13.31 36.34 13.38 35.92 13.38ZM52.19 4.44C52.37 4.42 52.47 4.34 52.47 4.19L52.47 3.92L51.30 3.92L50.79 3.92C50.72 3.92 50.68 3.92 50.64 3.93C50.60 3.95 50.57 3.99 50.53 4.05L46.63 10.92C46.59 10.99 46.56 11.06 46.54 11.13C46.51 11.20 46.48 11.28 46.45 11.35C46.40 11.20 46.34 11.06 46.27 10.93L42.27 4.05C42.22 3.99 42.20 3.95 42.15 3.93C42.11 3.92 42.07 3.92 42.00 3.92L41.51 3.92L40.32 3.92L40.32 4.19C40.32 4.34 40.42 4.42 40.60 4.44L40.74 4.44C40.81 4.44 40.91 4.45 41.05 4.45C41.19 4.45 41.34 4.47 41.51 4.47L41.51 13.26C41.34 13.26 41.19 13.27 41.05 13.27C40.91 13.27 40.81 13.29 40.74 13.29L40.60 13.29C40.42 13.30 40.32 13.38 40.32 13.54L40.32 13.82L41.51 13.82L42.13 13.82L43.34 13.82L43.34 13.54C43.34 13.38 43.25 13.30 43.06 13.29L42.92 13.29C42.85 13.29 42.74 13.27 42.60 13.27C42.46 13.27 42.29 13.26 42.13 13.26L42.13 5.38C42.13 5.25 42.13 5.12 42.11 4.98L46.12 11.91C46.19 12.04 46.28 12.10 46.40 12.10L46.51 12.10C46.63 12.10 46.72 12.04 46.79 11.91L50.68 4.98C50.67 5.12 50.67 5.25 50.67 5.38L50.67 13.26C50.50 13.26 50.33 13.27 50.19 13.27C50.05 13.27 49.94 13.29 49.87 13.29L49.73 13.29C49.55 13.30 49.45 13.38 49.45 13.54L49.45 13.82L50.67 13.82L51.30 13.82L52.47 13.82L52.47 13.54C52.47 13.38 52.37 13.30 52.19 13.29L52.07 13.29C52.00 13.29 51.88 13.27 51.74 13.27C51.60 13.27 51.46 13.26 51.30 13.26L51.30 4.47C51.46 4.47 51.60 4.45 51.74 4.45C51.88 4.45 52.00 4.44 52.07 4.44ZM56.80 6.73C56.31 6.73 55.86 6.83 55.47 7.00C55.08 7.17 54.75 7.41 54.49 7.71C54.22 8.02 54.01 8.39 53.87 8.81C53.73 9.23 53.65 9.69 53.65 10.19C53.65 10.78 53.73 11.31 53.89 11.77C54.04 12.24 54.25 12.61 54.53 12.94C54.81 13.26 55.15 13.50 55.54 13.66C55.93 13.83 56.36 13.90 56.84 13.90C57.11 13.90 57.37 13.89 57.62 13.83C57.88 13.78 58.13 13.71 58.35 13.62C58.58 13.54 58.79 13.44 58.97 13.31C59.15 13.19 59.30 13.06 59.42 12.92L59.23 12.70C59.21 12.66 59.15 12.63 59.09 12.63C59.05 12.63 58.97 12.66 58.87 12.74C58.77 12.82 58.63 12.91 58.45 13.01C58.28 13.10 58.06 13.17 57.81 13.26C57.55 13.34 57.25 13.38 56.90 13.38C56.50 13.38 56.15 13.31 55.83 13.17C55.51 13.03 55.24 12.84 55.02 12.57C54.80 12.31 54.63 11.97 54.50 11.58C54.38 11.19 54.32 10.71 54.32 10.19L54.32 10.07L59.35 10.07C59.42 10.07 59.46 10.05 59.49 10.01C59.51 9.97 59.54 9.90 59.54 9.80C59.54 9.31 59.47 8.88 59.33 8.50C59.19 8.12 59.01 7.78 58.76 7.53C58.52 7.28 58.23 7.08 57.89 6.94C57.55 6.80 57.19 6.73 56.80 6.73ZM56.81 7.24C57.13 7.24 57.41 7.29 57.68 7.41C57.95 7.52 58.17 7.67 58.35 7.88C58.53 8.09 58.69 8.33 58.79 8.62C58.88 8.92 58.94 9.25 58.94 9.63L54.35 9.63C54.39 9.27 54.47 8.93 54.60 8.64C54.73 8.34 54.89 8.09 55.10 7.88C55.31 7.67 55.57 7.52 55.85 7.41C56.13 7.29 56.45 7.24 56.81 7.24Z"></path></g><defs data-v-fde0c5aa=""><!----></defs><g data-v-fde0c5aa="" id="baf2b008-11d4-47e9-bee9-ef0c39afe514" stroke="none" fill="#D1A103" transform="matrix(0.4288787606387847,0,0,0.4288787606387847,40.00003191389046,128.55606196806076)"><path opacity=".99" d="M50.04 0C36.381 0 23.931 5.461 14.844 14.42A49.857 49.857 0 0 0 0 50c0 14.02 5.758 26.621 14.844 35.58S36.381 100 50.04 100s26.029-5.461 35.116-14.42A49.855 49.855 0 0 0 100 50a49.857 49.857 0 0 0-14.844-35.58C76.069 5.461 63.699 0 50.04 0zm0 6.035a45.738 45.738 0 0 1 32.163 13.166C90.354 27.238 95.211 38.083 95.211 50s-4.857 22.762-13.008 30.799A45.736 45.736 0 0 1 50.04 93.966c-12.645 0-24.091-5.129-32.243-13.167C9.646 72.762 4.789 61.917 4.789 50s4.857-22.762 13.009-30.799C25.949 11.164 37.395 6.035 50.04 6.035zM63.049 18.26l3.192 5.564-5.667 6.348-3.271 1.097-3.831-1.411-5.427 2.508-.718 3.057 1.437 2.821 2.553-4.859 1.038 3.135-2.555 2.508-6.065.627-1.437 1.489 1.437 1.724-3.192 1.332 2.155 3.057 2.474-1.411 2.155-2.273 3.752 1.881 1.276.549 1.356 2.272.719.862-7.343-.706s-5.848-.212-6.385.314l-3.033 5.33.718 5.25 6.065 1.803 3.592 2.43v7.053l1.037 4.938h3.592l3.592-2.115 2.474-6.035-.319-4.232 3.192-4.545 2.873-5.25 3.272-1.02 1.756 6.27 4.629-4.154.718 7.994 3.911 3.213 2.952-.705-3.671-4.231.719-3.841 2.154.393-1.756-3.918 3.192-2.117 1.756-6.348 1.517-5.643-1.836-3.84.719-1.333 2.474 7.68.718-10.501-5.746-4.937h-9.258l-9.656-8.074zm-25.698 2.743l-5.347 2.822 2.075 9.875 1.437.392 2.474-4.545 3.272-2.821-1.117-4.232-2.794-1.491zm-18.277 6.035l-3.911 3.84v2.116l-1.756 4.231-1.117 10.188 2.873 5.643 6.784 7.68-.399 6.035 1.516 3.84v9.091l4.23 2.116-.718-3.213 3.911-2.116 6.464-7.367-6.784-8.386-7.901-3.135-5.746-5.25 1.516-2.508 5.028-.313 1.357-5.956 6.784-4.232-6.385-6.348-2.554 1.411-3.192-7.367z"></path></g><!----></svg>